<mxfile host="app.diagrams.net" modified="2023-05-25T07:31:26.226Z" agent="Mozilla/5.0 (Windows NT 10.0; Win64; x64) AppleWebKit/537.36 (KHTML, like Gecko) Chrome/113.0.0.0 Safari/537.36" etag="sZVxmp5caUyvGCOLBnhu" version="21.3.2" type="github">
  <diagram name="第 1 页" id="4_IaHkzSO-7Wxw2Ru7LC">
    <mxGraphModel dx="719" dy="335" grid="0" gridSize="10" guides="1" tooltips="1" connect="1" arrows="1" fold="1" page="1" pageScale="1" pageWidth="827" pageHeight="1169" math="0" shadow="0">
      <root>
        <mxCell id="0" />
        <mxCell id="1" parent="0" />
        <mxCell id="eM1DSXIxrDdIMDCGkrrX-2" value="菜品" style="rounded=0;whiteSpace=wrap;html=1;" vertex="1" parent="1">
          <mxGeometry x="329" y="208" width="120" height="60" as="geometry" />
        </mxCell>
        <mxCell id="eM1DSXIxrDdIMDCGkrrX-3" value="菜品名称" style="ellipse;whiteSpace=wrap;html=1;" vertex="1" parent="1">
          <mxGeometry x="351" y="72" width="102" height="69" as="geometry" />
        </mxCell>
        <mxCell id="eM1DSXIxrDdIMDCGkrrX-4" value="菜品味道" style="ellipse;whiteSpace=wrap;html=1;" vertex="1" parent="1">
          <mxGeometry x="512" y="118" width="102" height="69" as="geometry" />
        </mxCell>
        <mxCell id="eM1DSXIxrDdIMDCGkrrX-5" value="菜品价格" style="ellipse;whiteSpace=wrap;html=1;" vertex="1" parent="1">
          <mxGeometry x="521" y="233" width="102" height="69" as="geometry" />
        </mxCell>
        <mxCell id="eM1DSXIxrDdIMDCGkrrX-6" value="购物车数量" style="ellipse;whiteSpace=wrap;html=1;" vertex="1" parent="1">
          <mxGeometry x="465" y="324" width="102" height="69" as="geometry" />
        </mxCell>
        <mxCell id="eM1DSXIxrDdIMDCGkrrX-7" value="菜品类型" style="ellipse;whiteSpace=wrap;html=1;" vertex="1" parent="1">
          <mxGeometry x="210" y="321" width="102" height="69" as="geometry" />
        </mxCell>
        <mxCell id="eM1DSXIxrDdIMDCGkrrX-8" value="创建时间" style="ellipse;whiteSpace=wrap;html=1;" vertex="1" parent="1">
          <mxGeometry x="147" y="227" width="102" height="69" as="geometry" />
        </mxCell>
        <mxCell id="eM1DSXIxrDdIMDCGkrrX-9" value="菜品id" style="ellipse;whiteSpace=wrap;html=1;" vertex="1" parent="1">
          <mxGeometry x="181" y="108" width="102" height="69" as="geometry" />
        </mxCell>
        <mxCell id="eM1DSXIxrDdIMDCGkrrX-10" value="" style="endArrow=none;html=1;rounded=0;entryX=0.5;entryY=0;entryDx=0;entryDy=0;exitX=0.5;exitY=1;exitDx=0;exitDy=0;" edge="1" parent="1" source="eM1DSXIxrDdIMDCGkrrX-3" target="eM1DSXIxrDdIMDCGkrrX-2">
          <mxGeometry width="50" height="50" relative="1" as="geometry">
            <mxPoint x="345" y="309" as="sourcePoint" />
            <mxPoint x="395" y="259" as="targetPoint" />
          </mxGeometry>
        </mxCell>
        <mxCell id="eM1DSXIxrDdIMDCGkrrX-11" value="" style="endArrow=none;html=1;rounded=0;entryX=1;entryY=0.25;entryDx=0;entryDy=0;exitX=0;exitY=1;exitDx=0;exitDy=0;" edge="1" parent="1" source="eM1DSXIxrDdIMDCGkrrX-4" target="eM1DSXIxrDdIMDCGkrrX-2">
          <mxGeometry width="50" height="50" relative="1" as="geometry">
            <mxPoint x="418" y="138" as="sourcePoint" />
            <mxPoint x="399" y="218" as="targetPoint" />
          </mxGeometry>
        </mxCell>
        <mxCell id="eM1DSXIxrDdIMDCGkrrX-12" value="" style="endArrow=none;html=1;rounded=0;entryX=1;entryY=0.5;entryDx=0;entryDy=0;exitX=0;exitY=0.5;exitDx=0;exitDy=0;" edge="1" parent="1" source="eM1DSXIxrDdIMDCGkrrX-5" target="eM1DSXIxrDdIMDCGkrrX-2">
          <mxGeometry width="50" height="50" relative="1" as="geometry">
            <mxPoint x="428" y="148" as="sourcePoint" />
            <mxPoint x="409" y="228" as="targetPoint" />
          </mxGeometry>
        </mxCell>
        <mxCell id="eM1DSXIxrDdIMDCGkrrX-13" value="" style="endArrow=none;html=1;rounded=0;entryX=0.75;entryY=1;entryDx=0;entryDy=0;exitX=0.5;exitY=0;exitDx=0;exitDy=0;" edge="1" parent="1" source="eM1DSXIxrDdIMDCGkrrX-6" target="eM1DSXIxrDdIMDCGkrrX-2">
          <mxGeometry width="50" height="50" relative="1" as="geometry">
            <mxPoint x="438" y="158" as="sourcePoint" />
            <mxPoint x="419" y="238" as="targetPoint" />
          </mxGeometry>
        </mxCell>
        <mxCell id="eM1DSXIxrDdIMDCGkrrX-14" value="" style="endArrow=none;html=1;rounded=0;entryX=0.25;entryY=1;entryDx=0;entryDy=0;exitX=1;exitY=0;exitDx=0;exitDy=0;" edge="1" parent="1" source="eM1DSXIxrDdIMDCGkrrX-7" target="eM1DSXIxrDdIMDCGkrrX-2">
          <mxGeometry width="50" height="50" relative="1" as="geometry">
            <mxPoint x="448" y="168" as="sourcePoint" />
            <mxPoint x="429" y="248" as="targetPoint" />
          </mxGeometry>
        </mxCell>
        <mxCell id="eM1DSXIxrDdIMDCGkrrX-15" value="" style="endArrow=none;html=1;rounded=0;entryX=0;entryY=0.75;entryDx=0;entryDy=0;exitX=1;exitY=0.5;exitDx=0;exitDy=0;" edge="1" parent="1" source="eM1DSXIxrDdIMDCGkrrX-8" target="eM1DSXIxrDdIMDCGkrrX-2">
          <mxGeometry width="50" height="50" relative="1" as="geometry">
            <mxPoint x="458" y="178" as="sourcePoint" />
            <mxPoint x="439" y="258" as="targetPoint" />
          </mxGeometry>
        </mxCell>
        <mxCell id="eM1DSXIxrDdIMDCGkrrX-16" value="" style="endArrow=none;html=1;rounded=0;entryX=0;entryY=0.25;entryDx=0;entryDy=0;exitX=1;exitY=1;exitDx=0;exitDy=0;" edge="1" parent="1" source="eM1DSXIxrDdIMDCGkrrX-9" target="eM1DSXIxrDdIMDCGkrrX-2">
          <mxGeometry width="50" height="50" relative="1" as="geometry">
            <mxPoint x="468" y="188" as="sourcePoint" />
            <mxPoint x="449" y="268" as="targetPoint" />
          </mxGeometry>
        </mxCell>
        <mxCell id="eM1DSXIxrDdIMDCGkrrX-17" value="购物车数量" style="ellipse;whiteSpace=wrap;html=1;" vertex="1" parent="1">
          <mxGeometry x="338" y="344" width="102" height="69" as="geometry" />
        </mxCell>
        <mxCell id="eM1DSXIxrDdIMDCGkrrX-18" value="" style="endArrow=none;html=1;rounded=0;entryX=0.5;entryY=1;entryDx=0;entryDy=0;exitX=0.5;exitY=0;exitDx=0;exitDy=0;" edge="1" parent="1" source="eM1DSXIxrDdIMDCGkrrX-17" target="eM1DSXIxrDdIMDCGkrrX-2">
          <mxGeometry width="50" height="50" relative="1" as="geometry">
            <mxPoint x="307" y="341" as="sourcePoint" />
            <mxPoint x="369" y="278" as="targetPoint" />
          </mxGeometry>
        </mxCell>
      </root>
    </mxGraphModel>
  </diagram>
</mxfile>
